<svg width="18" height="19" viewBox="0 0 18 19" fill="none" xmlns="http://www.w3.org/2000/svg">
<path fill-rule="evenodd" clip-rule="evenodd" d="M14 5.5C14 8.2615 11.7615 10.5 9 10.5C6.2385 10.5 4 8.2615 4 5.5C4 2.7385 6.2385 0.5 9 0.5C11.7615 0.5 14 2.7385 14 5.5ZM13 5.5C13 6.56087 12.5786 7.57828 11.8284 8.32843C11.0783 9.07857 10.0609 9.5 9 9.5C7.93913 9.5 6.92172 9.07857 6.17157 8.32843C5.42143 7.57828 5 6.56087 5 5.5C5 4.43913 5.42143 3.42172 6.17157 2.67157C6.92172 1.92143 7.93913 1.5 9 1.5C10.0609 1.5 11.0783 1.92143 11.8284 2.67157C12.5786 3.42172 13 4.43913 13 5.5ZM5.957 11.9275L5.9625 11.9385L6 12.012H11.8745C11.989 11.795 12.2485 11.449 12.5 11.5065C13.065 11.635 13.634 11.814 14.1805 12.0345L14.197 12.0265L14.2025 12.0375L14.2065 12.045C16.264 12.881 18 14.298 18 15.785V18.5H0V15.785C0 13.8975 2.798 12.1215 5.5 11.5065C5.7205 11.4565 5.8515 11.7165 5.957 11.9275ZM13.352 12.7915C13.1375 12.7164 12.9205 12.6485 12.7015 12.588L12.4785 13.012H5.3965L5.1895 12.6185L5.0095 12.6725C5.006 12.7055 5.003 12.7425 5.0015 12.7845C4.995 12.957 5.008 13.1615 5.0365 13.3695C5.06575 13.5864 5.11257 13.8006 5.1765 14.01C5.52773 14.0516 5.85296 14.216 6.09476 14.4741C6.33655 14.7323 6.47935 15.0675 6.49795 15.4207C6.51654 15.7739 6.40972 16.1223 6.19636 16.4044C5.983 16.6865 5.67683 16.8841 5.3319 16.9624C4.98698 17.0407 4.6255 16.9945 4.31129 16.8321C3.99709 16.6697 3.75038 16.4015 3.61473 16.0749C3.47908 15.7482 3.46321 15.3842 3.56994 15.047C3.67666 14.7098 3.89911 14.4211 4.198 14.232L4.194 14.218C4.12737 13.9842 4.07774 13.7459 4.0455 13.505C4.02429 13.3511 4.01027 13.1962 4.0035 13.041C3.3855 13.305 2.809 13.624 2.326 13.976C1.365 14.678 1 15.334 1 15.785V17.5H17V15.785C17 15.3335 16.635 14.6775 15.674 13.9765C15.255 13.6752 14.8087 13.4137 14.341 13.1955C14.3207 13.4665 14.2792 13.7355 14.217 14H14.5C14.5928 14 14.6838 14.0259 14.7628 14.0748C14.8417 14.1236 14.9055 14.1935 14.947 14.2765L15.447 15.2765C15.482 15.346 15.5 15.4225 15.5 15.5V16.5C15.5 16.6326 15.4473 16.7598 15.3536 16.8536C15.2598 16.9473 15.1326 17 15 17H14V16H14.5V15.618L14.191 15H12.809L12.5 15.618V16H13V17H12C11.8674 17 11.7402 16.9473 11.6464 16.8536C11.5527 16.7598 11.5 16.6326 11.5 16.5V15.5C11.5 15.4225 11.518 15.346 11.553 15.2765L12.053 14.2765C12.0945 14.1935 12.1583 14.1236 12.2372 14.0748C12.3162 14.0259 12.4072 14 12.5 14H13.181C13.187 13.98 13.1935 13.96 13.1995 13.938C13.2465 13.7775 13.2885 13.578 13.317 13.37C13.345 13.164 13.358 12.9625 13.352 12.7915ZM5.5 15.5C5.5 15.787 5.269 16.0075 5 16.0075C4.731 16.0075 4.5 15.7875 4.5 15.5C4.5 15.213 4.731 14.9925 5 14.9925C5.269 14.9925 5.5 15.2125 5.5 15.5Z" fill="#91D2B2"/>
</svg>
