<svg width="25" height="25" viewBox="0 0 25 25" fill="none" xmlns="http://www.w3.org/2000/svg">
<path opacity="0.4" d="M20.54 7.32018L14.78 3.29018C13.21 2.19018 10.8 2.25018 9.28999 3.42018L4.27999 7.33018C3.27999 8.11018 2.48999 9.71018 2.48999 10.9702V17.8702C2.48999 20.4202 4.55999 22.5002 7.10999 22.5002H17.89C20.44 22.5002 22.51 20.4302 22.51 17.8802V11.1002C22.51 9.75018 21.64 8.09018 20.54 7.32018Z" fill="white"/>
<path d="M12.5 19.25C12.09 19.25 11.75 18.91 11.75 18.5V15.5C11.75 15.09 12.09 14.75 12.5 14.75C12.91 14.75 13.25 15.09 13.25 15.5V18.5C13.25 18.91 12.91 19.25 12.5 19.25Z" fill="white"/>
</svg>
