<svg id="Layer_1" data-name="Layer 1" xmlns="http://www.w3.org/2000/svg" viewBox="0 0 1080 1080"><defs><style>.cls-1{fill:#479a5e;}.cls-2{fill:#d1d3d4;opacity:0.7;}</style></defs><path class="cls-1" d="M407.79,605.31a3.28,3.28,0,0,0,1.65-1.3,5.38,5.38,0,0,0,.73-2.27,26.14,26.14,0,0,0,.18-3.29V552.78c-.52-.93-1-1.76-1.37-2.49s-.73-1.34-1-1.85-.63-1.15-.91-1.61h10.29q.57,1,2.35,4.27l4.31,7.77q2.52,4.56,5.53,10t6,10.86q3,5.43,5.78,10.47t4.87,8.76V554.81a26.14,26.14,0,0,0-.18-3.29,5.47,5.47,0,0,0-.73-2.28,3.32,3.32,0,0,0-1.65-1.29,8.44,8.44,0,0,0-3-.42v-.7l3.53.1c1,0,1.85,0,2.66,0s1.66,0,2.53,0l3.11-.1v.7a9.78,9.78,0,0,0-3,.35,3,3,0,0,0-1.65,1.19,5.19,5.19,0,0,0-.73,2.27,29.23,29.23,0,0,0-.18,3.54v45.46c.51.93,1,1.77,1.4,2.52l1.05,1.89.91,1.68H440.12l-2.77-5-4.48-8q-2.56-4.59-5.5-10t-5.89-10.64q-2.94-5.29-5.63-10.16l-4.73-8.51v44.55a28.87,28.87,0,0,0,.17,3.39,5,5,0,0,0,.74,2.18,3.06,3.06,0,0,0,1.65,1.15,10.11,10.11,0,0,0,3,.35v.7l-3.11-.1c-.87,0-1.71,0-2.53,0s-1.7,0-2.66,0l-3.53.1v-.7A8.44,8.44,0,0,0,407.79,605.31Z"/><path class="cls-1" d="M481.09,606.5a23.68,23.68,0,0,1-10.16-2,22.26,22.26,0,0,1-7.32-5.39,23,23,0,0,1-4.48-7.64,26.81,26.81,0,0,1-.14-17.51,21.67,21.67,0,0,1,11.84-13,25,25,0,0,1,10.47-2,25.86,25.86,0,0,1,7.53,1,23.18,23.18,0,0,1,6.27,3,20.55,20.55,0,0,1,4.83,4.51,24,24,0,0,1,3.29,5.78l-2.59.46-4.1.73c-1.56.28-3.3.59-5.21.91l-6,1a23.05,23.05,0,0,1,7.95,1.37,16.88,16.88,0,0,1,5.47,3.29,11.84,11.84,0,0,1,3.08,4.55,12.57,12.57,0,0,1,.77,5.19,14.25,14.25,0,0,1-1.4,5.18,14.11,14.11,0,0,1-3.47,4.52,24.55,24.55,0,0,1-7.28,4.45A25.4,25.4,0,0,1,481.09,606.5Zm-14.15-26.89a47.47,47.47,0,0,0,.28,8.86,29.57,29.57,0,0,0,2.24,8.4,17.36,17.36,0,0,0,4.56,6.3,11,11,0,0,0,7.28,2.56,25,25,0,0,0,9-1.64,23.92,23.92,0,0,0,7-4.24,13.47,13.47,0,0,0,4.34-7.22,11.57,11.57,0,0,0-.91-7.84,11.94,11.94,0,0,0-2.8-3.71,13.78,13.78,0,0,0-3.75-2.35,18.59,18.59,0,0,0-4.45-1.23,33.49,33.49,0,0,0-4.83-.35,46.45,46.45,0,0,0-5,.28c-1.65.19-3.27.41-4.83.67s-3,.53-4.41.81S468,579.42,466.94,579.61Zm0-.77,5.22-.92c1.84-.32,3.75-.67,5.71-1q4.54-.76,9-1.57t8.09-1.44a31.92,31.92,0,0,0-1.58-5.29,17,17,0,0,0-2.66-4.55,12.54,12.54,0,0,0-4-3.19,12.08,12.08,0,0,0-5.5-1.19,11.38,11.38,0,0,0-6.55,1.79,14,14,0,0,0-4.27,4.59,22,22,0,0,0-2.45,6.2A39.56,39.56,0,0,0,466.94,578.84Z"/><path class="cls-1" d="M506.51,558.87l5,.25c1.44.07,2.89.1,4.34.1s2.74,0,4.17-.1l4.94-.25v.56c-2,.8-3.09,1.8-3.37,3a8,8,0,0,0,.56,4.48q2.75,6.3,5.12,11.84,1.05,2.37,2.06,4.79c.68,1.61,1.33,3.16,2,4.63s1.21,2.81,1.72,4,.93,2.2,1.26,2.95a72.92,72.92,0,0,1,5.6-8.06q3.09-3.86,6.24-7.42c-.94-2.25-1.93-4.59-3-7s-2-4.73-2.91-6.83a17.57,17.57,0,0,0-2.83-4.63,6.57,6.57,0,0,0-2.63-1.75v-.56l5,.25c1.45.07,2.88.1,4.28.1s2.66,0,4.06-.1l4.76-.25q4.2-.27,5.89.6a2.43,2.43,0,0,1,1.4,2.73,11.73,11.73,0,0,1-2.21,4.59c-1.28,1.82-2.91,3.87-4.87,6.16.89,2.1,1.62,3.83,2.21,5.18s1.18,2.74,1.78,4.14,1.31,3,2.11,4.83,1.82,4.23,3.08,7.21q1.81-4.54,3.64-9.24,1.6-4,3.47-8.72c1.23-3.15,2.44-6.18,3.6-9.07.94-2.38,1-4.21.11-5.5s-2.84-2.09-5.92-2.42v-.49c1.12.1,2.18.17,3.19.21s2,.07,2.9.07c1.12,0,2.23,0,3.33-.07s2.21-.11,3.33-.21v.49a11.86,11.86,0,0,0-3.4,2.95,19.76,19.76,0,0,0-2.49,4.34q-1.19,2.86-2.45,6.09t-2.59,6.55q-1.33,3.33-2.62,6.65c-.87,2.22-1.7,4.34-2.49,6.34q-2.8,7.08-5.6,14.15h-.56c-.1-.23-.47-1.11-1.13-2.62S555,600.35,554,598s-2.19-5-3.5-8.09-2.66-6.21-4.06-9.52c-1.68,2-3.38,4-5.08,6a79.92,79.92,0,0,0-4.76,6.45,72.79,72.79,0,0,0-4,6.72,36.86,36.86,0,0,0-2.73,6.83h-.56l-1-2.31-2.17-5q-1.34-3.09-3.05-7.08t-3.61-8.4q-1.89-4.41-3.85-9t-3.78-8.82a18.5,18.5,0,0,0-2.8-4.63,6.19,6.19,0,0,0-2.67-1.75Zm46.79.77a4.43,4.43,0,0,0-2.34.77,3.08,3.08,0,0,0-1.09,1.65,5.53,5.53,0,0,0-.1,2.28,11.88,11.88,0,0,0,.66,2.59c.42,1,.82,2,1.19,2.83s.73,1.67,1,2.42a63.35,63.35,0,0,0,4.69-5.92,11.51,11.51,0,0,0,2-4.23,1.65,1.65,0,0,0-.42-1.51,3.2,3.2,0,0,0-1.51-.74,9.55,9.55,0,0,0-2.07-.21C554.66,559.57,554,559.6,553.3,559.64Z"/><path class="cls-1" d="M583.07,605.73a7.15,7.15,0,0,0,2.87-.49,3.47,3.47,0,0,0,1.68-1.47,6.77,6.77,0,0,0,.77-2.49,25.86,25.86,0,0,0,.21-3.53v-43.5a23.16,23.16,0,0,0-.14-2.77,5.51,5.51,0,0,0-.63-2.1,3.34,3.34,0,0,0-1.4-1.36,5.15,5.15,0,0,0-2.45-.49v-.7h28.23a37.93,37.93,0,0,1,6.83.59,15,15,0,0,1,5.53,2.14,10.65,10.65,0,0,1,3.68,4.17,14.64,14.64,0,0,1,1.33,6.61,11.44,11.44,0,0,1-1.82,6.59,14.36,14.36,0,0,1-4.45,4.24,19,19,0,0,1-5.6,2.24,24.82,24.82,0,0,1-5.29.66c2.56.89,5.11,1.73,7.63,2.52a35.8,35.8,0,0,1,6.87,2.95A16.63,16.63,0,0,1,632,584a13.26,13.26,0,0,1,2.38,7,14.31,14.31,0,0,1-1.16,7.6,11.22,11.22,0,0,1-4.41,4.7,20.6,20.6,0,0,1-6.93,2.41,50.68,50.68,0,0,1-8.72.7H583.07Zm14.5-46.79a16.73,16.73,0,0,0,1.64,5.57,14.7,14.7,0,0,0,3.09,4.06,19,19,0,0,0,4.2,2.95,37.13,37.13,0,0,0,4.94,2.13q5-.27,7.11-3.89a18.9,18.9,0,0,0,2.06-9.42,16.36,16.36,0,0,0-1-6.16,10.19,10.19,0,0,0-2.74-3.92,9.89,9.89,0,0,0-4-2.07,19.19,19.19,0,0,0-4.8-.59h-10.5Zm2.87,8.69a16.52,16.52,0,0,1-2.87-5.18v43.21h13a27,27,0,0,0,5.67-.59,11.24,11.24,0,0,0,4.76-2.25,11.43,11.43,0,0,0,3.26-4.48,18.55,18.55,0,0,0,1.23-7.32,13,13,0,0,0-1.2-5.92,12.37,12.37,0,0,0-3.18-4,22.09,22.09,0,0,0-4.56-2.87c-1.7-.82-3.49-1.7-5.35-2.66a58,58,0,0,1-5.57-3.26A23.46,23.46,0,0,1,600.44,567.63Z"/><path class="cls-1" d="M663,606.43a24.18,24.18,0,0,1-9.74-1.89,21.86,21.86,0,0,1-7.39-5.18,23.24,23.24,0,0,1-4.69-7.71,26.94,26.94,0,0,1-1.65-9.52A24.55,24.55,0,0,1,641.2,573,22.12,22.12,0,0,1,646,565.6a21.76,21.76,0,0,1,7.46-4.94,25.61,25.61,0,0,1,9.77-1.79,25.18,25.18,0,0,1,9.8,1.82,21.64,21.64,0,0,1,12.16,12.51,26.14,26.14,0,0,1,1.64,9.35,26.91,26.91,0,0,1-1.64,9.49,21.44,21.44,0,0,1-4.77,7.56,22.17,22.17,0,0,1-7.53,5A25.53,25.53,0,0,1,663,606.43ZM648.7,582.2q0,2.24.24,4.86a36.94,36.94,0,0,0,.88,5.22,30.71,30.71,0,0,0,1.68,5,15.82,15.82,0,0,0,2.7,4.27,12.86,12.86,0,0,0,3.85,3,11.35,11.35,0,0,0,5.22,1.12,10.83,10.83,0,0,0,7.28-2.38,16.5,16.5,0,0,0,4.38-5.88,27.81,27.81,0,0,0,2.14-7.6,56.17,56.17,0,0,0,.56-7.46c0-1.5-.09-3.1-.25-4.8a34.15,34.15,0,0,0-.87-5.08,29.52,29.52,0,0,0-1.69-4.87,15.57,15.57,0,0,0-2.66-4.13,11.65,11.65,0,0,0-9-3.89,12.15,12.15,0,0,0-5.19,1,11.6,11.6,0,0,0-3.81,2.84,16.44,16.44,0,0,0-2.63,4.1,28.14,28.14,0,0,0-1.68,4.83,35.52,35.52,0,0,0-.88,5.08C648.78,579.17,648.7,580.75,648.7,582.2Z"/><path class="cls-1" d="M691.84,582.9a34.74,34.74,0,0,1,1.33-9.91,21.49,21.49,0,0,1,3.93-7.6,17.24,17.24,0,0,1,6.44-4.87,22,22,0,0,1,9-1.72,16.6,16.6,0,0,1,6,1.12,17.18,17.18,0,0,1,5.33,3.3,19.19,19.19,0,0,1,4.1,5.35,23.11,23.11,0,0,1,2.31,7.25V554.74c0-1.17,0-2.18-.11-3a6.07,6.07,0,0,0-.56-2.2,3.12,3.12,0,0,0-1.36-1.4,6.38,6.38,0,0,0-2.46-.63v-.7a55.35,55.35,0,0,0,6.87-1.12,38,38,0,0,0,6.72-2.11v53.59a25,25,0,0,0,.21,3.36,10.29,10.29,0,0,0,.7,2.66,4.4,4.4,0,0,0,1.4,1.79,4,4,0,0,0,2.38.66v.77a29.53,29.53,0,0,1-6.23-.56,10.4,10.4,0,0,1-4.27-1.86,7.59,7.59,0,0,1-2.49-3.5,16.59,16.59,0,0,1-.8-5.57v-4.34A20.23,20.23,0,0,1,724,601.74a18.51,18.51,0,0,1-5.36,3.43,15,15,0,0,1-6.26,1.19,20.79,20.79,0,0,1-8.34-1.64,18.39,18.39,0,0,1-6.48-4.7,21.59,21.59,0,0,1-4.2-7.39A29.4,29.4,0,0,1,691.84,582.9Zm9,0a64.37,64.37,0,0,0,.59,8.93,27,27,0,0,0,2,7.21,12.55,12.55,0,0,0,3.57,4.8,8.44,8.44,0,0,0,5.43,1.75,14.4,14.4,0,0,0,5.21-.8,17.21,17.21,0,0,0,4.59-2.46,18.27,18.27,0,0,0,3.71-3.74,20,20,0,0,0,2.6-4.7,18.06,18.06,0,0,0,1.54-6c.14-2,.21-3.77.21-5.22,0-.66,0-1.4-.11-2.24s-.16-1.71-.28-2.6-.26-1.77-.42-2.66a14.35,14.35,0,0,0-.66-2.45,21.43,21.43,0,0,0-2.63-5.6,17.4,17.4,0,0,0-3.82-4.13,16.4,16.4,0,0,0-4.69-2.56,15.6,15.6,0,0,0-5.11-.88,8.4,8.4,0,0,0-6.1,2.24,15,15,0,0,0-3.57,5.68,30.12,30.12,0,0,0-1.65,7.56Q700.82,579.12,700.81,582.9Z"/><path class="cls-1" d="M752.71,565.81a18.5,18.5,0,0,0-2.8-4.63,6.22,6.22,0,0,0-2.66-1.75l.07-.56,4.9.25c1.45.07,2.87.1,4.27.1s2.66,0,4.06-.1l4.77-.25a5.13,5.13,0,0,1,4,1.19,11.21,11.21,0,0,1,2.63,3.58,25.63,25.63,0,0,1,1.72,4.76q.66,2.6,1.29,4.83a18.41,18.41,0,0,0,1.44,3.75,2.38,2.38,0,0,0,2.06,1.51c.89,0,2-.64,3.23-1.9.65-1.58,1.29-3.16,1.92-4.72s1.23-3.1,1.79-4.59q1.4-3.57-.28-5.5t-6.31-2.42v-.49c1.13.1,2.21.17,3.26.21s2.09.07,3.12.07c1.26,0,2.49,0,3.68-.07s2.34-.11,3.46-.21v.49a12,12,0,0,0-3.39,2.95,19.76,19.76,0,0,0-2.49,4.34c-1,2.52-2.06,5.25-3.22,8.19s-2.34,5.89-3.5,8.83-2.29,5.78-3.37,8.51-2,5.15-2.87,7.25q-1.6,4-2.84,7.11t-2.45,5.64a34.54,34.54,0,0,1-2.59,4.51,22.29,22.29,0,0,1-3.25,3.75,12.66,12.66,0,0,1-5.82,3.15,17.9,17.9,0,0,1-5.81.42l3.29-9.94h.49a5,5,0,0,0,2.1,2.73,5.94,5.94,0,0,0,3.15.91,7.28,7.28,0,0,0,3.16-.74,7.65,7.65,0,0,0,2.66-2.13,17.56,17.56,0,0,0,1.71-2.81,12.14,12.14,0,0,0,1.12-3.6,15.55,15.55,0,0,0,0-4.42,20.48,20.48,0,0,0-1.57-5.35c-.94-2.06-2-4.4-3.08-7s-2.32-5.41-3.58-8.3-2.53-5.84-3.81-8.83S753.88,568.61,752.71,565.81Zm13.1-6.17a4.1,4.1,0,0,0-2.21.81,3.42,3.42,0,0,0-1.12,1.65,5.25,5.25,0,0,0-.17,2.24,10.73,10.73,0,0,0,.63,2.59q1.81,4.34,3.92,9.14t3.85,8.86l4,9.38q.91-2.23,2-4.9.92-2.24,2-5.15c.75-1.93,1.57-4,2.46-6.13a4.16,4.16,0,0,1-2.67,1.13,2.6,2.6,0,0,1-2-.92,6.75,6.75,0,0,1-1.68-3c-.42-1.35-.81-2.77-1.19-4.27-.33-1.21-.69-2.5-1.08-3.85a20.79,20.79,0,0,0-1.47-3.71,9.3,9.3,0,0,0-2.14-2.77A4.68,4.68,0,0,0,765.81,559.64Z"/><path class="cls-1" d="M316.17,668h-.06a1.17,1.17,0,0,0-.36-.82,1.12,1.12,0,0,0-.82-.35h-.25v-.18h1.49Zm0,10.28v1.36h-1.49v-.19h.25a1.11,1.11,0,0,0,.82-.34,1.19,1.19,0,0,0,.36-.83Zm1.67-11.63v13h-1.73v-13Zm-.06,1.35v-1.35h1.49v.18H319a1.13,1.13,0,0,0-.83.35,1.17,1.17,0,0,0-.36.82Zm5,11,.15.65h-5.18V679Zm1.21-2.62-1,3.27h-3.26l.67-.65a3.52,3.52,0,0,0,1.61-.33,2.89,2.89,0,0,0,1.08-.92,6.1,6.1,0,0,0,.72-1.37Z"/><path class="cls-1" d="M335.61,668h-.05a1.21,1.21,0,0,0-.36-.82,1.14,1.14,0,0,0-.83-.35h-.24v-.18h1.48Zm0,10.28v1.36h-1.48v-.19h.24a1.13,1.13,0,0,0,.83-.34,1.24,1.24,0,0,0,.36-.83Zm1.67-11.63v13h-1.72v-13Zm0,1.35v-1.35h1.48v.18h-.24a1.1,1.1,0,0,0-.82.35,1.22,1.22,0,0,0-.37.82Zm0,10.28h0a1.25,1.25,0,0,0,.37.83,1.09,1.09,0,0,0,.82.34h.24v.19h-1.48Z"/><path class="cls-1" d="M352.2,667.94l-2.11,0a1.9,1.9,0,0,0-.75-.9,1.76,1.76,0,0,0-.89-.27h-.15v-.18h4.75v.18h-.16a.78.78,0,0,0-.69,1.15Zm3.21,11.95-5.88-13.17h2.17l4.34,10.8Zm0,0-.13-1.61,4.86-11.62h1.19l-5,11.15a1.19,1.19,0,0,1-.12.29c-.08.17-.17.37-.27.61a7.08,7.08,0,0,0-.25.68,2.62,2.62,0,0,0-.12.5Zm4.21-11.95a.78.78,0,0,0-.07-.85.86.86,0,0,0-.63-.3h-.17v-.18h3.8v.18h-.16a1.72,1.72,0,0,0-.87.27,1.91,1.91,0,0,0-.76.9Z"/><path class="cls-1" d="M373.65,668h-.06a1.08,1.08,0,0,0-.35-.82,1.14,1.14,0,0,0-.83-.35h-.23v-.18h1.48Zm0,10.28v1.36h-1.48v-.19h.24a1.11,1.11,0,0,0,.82-.34,1.19,1.19,0,0,0,.36-.83Zm1.67-11.63v13h-1.73v-13Zm5.05,0v.65h-5.11v-.65Zm-.84,6.27v.63h-4.27v-.63Zm.76,6.07.15.65h-5.18V679Zm1.21-2.62-1,3.27h-3.27l.67-.65a3.52,3.52,0,0,0,1.61-.33,2.75,2.75,0,0,0,1.08-.92,5.72,5.72,0,0,0,.72-1.37Zm-1.13-10.06v.54l-2.27-.2a6.7,6.7,0,0,0,.87-.06l.84-.13A2.79,2.79,0,0,0,380.37,666.27Zm-.84,5.24v1.41h-1.3v0a1.12,1.12,0,0,0,.8-.35,1.14,1.14,0,0,0,.32-.8v-.22Zm0,2v1.41h-.18v-.24a1.14,1.14,0,0,0-.32-.8,1.06,1.06,0,0,0-.8-.33v0Zm.84-6.27v1.71h-.19v-.3a1.34,1.34,0,0,0-.38-1,1.35,1.35,0,0,0-1-.41v0Z"/><path class="cls-1" d="M408.53,667.94l-2.08-.05a2.3,2.3,0,0,0-.76-.76,1.85,1.85,0,0,0-1.09-.34h-.26v-.18h5.08v.18h-.24a.68.68,0,0,0-.62.38A.81.81,0,0,0,408.53,667.94Zm-.7-1.31,3.69,6.81-1.41.52-4.4-7.33ZM410,678.24v1.36h-1.47v-.19h.24a1.13,1.13,0,0,0,.83-.34,1.19,1.19,0,0,0,.36-.83Zm1.68-4.62v6H410v-6Zm3.2-7h1.24L411.58,674l-.76-.2Zm-3.25,11.61h.05a1.11,1.11,0,0,0,.36.83,1.13,1.13,0,0,0,.83.34h.22v.19h-1.46Zm2.49-10.3a.62.62,0,0,0,.09-.52A.89.89,0,0,0,414,667a.69.69,0,0,0-.46-.18h-.23v-.18h4.23v.18h-.26a1.84,1.84,0,0,0-1.07.34,2.78,2.78,0,0,0-.8.76Z"/><path class="cls-1" d="M433.45,666.35a7.6,7.6,0,0,1,3.63.83,6,6,0,0,1,2.41,2.36,7.8,7.8,0,0,1,0,7.12,6,6,0,0,1-2.41,2.36,7.49,7.49,0,0,1-3.63.84,7.41,7.41,0,0,1-3.59-.84,6,6,0,0,1-2.41-2.36,7.8,7.8,0,0,1,0-7.12,6,6,0,0,1,2.41-2.36A7.52,7.52,0,0,1,433.45,666.35Zm0,12.88a4.43,4.43,0,0,0,2.6-.77,4.94,4.94,0,0,0,1.71-2.13,8.86,8.86,0,0,0,0-6.46,5.06,5.06,0,0,0-1.71-2.13,4.78,4.78,0,0,0-5.17,0,5,5,0,0,0-1.71,2.13,8.72,8.72,0,0,0,0,6.46,4.87,4.87,0,0,0,1.71,2.13A4.41,4.41,0,0,0,433.45,679.23Z"/><path class="cls-1" d="M452,666.61v1.11H452a.88.88,0,0,0-.29-.67,1,1,0,0,0-.7-.26h-.29v-.18Zm1.67,0v8.16a5.37,5.37,0,0,0,.48,2.34,3.61,3.61,0,0,0,1.33,1.55,3.75,3.75,0,0,0,2,.55,4.19,4.19,0,0,0,2.1-.52,3.52,3.52,0,0,0,1.39-1.47,4.71,4.71,0,0,0,.5-2.21v-8.4h1V675a5.06,5.06,0,0,1-.63,2.56,4.18,4.18,0,0,1-1.78,1.7,5.72,5.72,0,0,1-2.72.62,6.57,6.57,0,0,1-2.91-.61,4.33,4.33,0,0,1-1.87-1.69A4.89,4.89,0,0,1,452,675v-8.38Zm1.28,0v.18h-.29a1,1,0,0,0-.7.26.88.88,0,0,0-.29.67h0v-1.11Zm6.59,0v1.11h-.05a.88.88,0,0,0-.29-.67,1,1,0,0,0-.7-.26h-.29v-.18Zm2.25,0v.18h-.3a1,1,0,0,0-.7.26.88.88,0,0,0-.28.67h0v-1.11Z"/><path class="cls-1" d="M475.81,668h-.05a1.26,1.26,0,0,0-.36-.82,1.14,1.14,0,0,0-.83-.35h-.24v-.18h1.48Zm0,10.28v1.36h-1.48v-.19h.24a1.13,1.13,0,0,0,.83-.34,1.29,1.29,0,0,0,.36-.83Zm1.67-11.63v13h-1.72v-13Zm2.3,0a5.21,5.21,0,0,1,1.56.22,3.51,3.51,0,0,1,1.24.66,3.11,3.11,0,0,1,.8,1.08,3.63,3.63,0,0,1,.3,1.53,3.78,3.78,0,0,1-.39,1.66,3.51,3.51,0,0,1-1.09,1.32,2.79,2.79,0,0,1-1.64.56,2.18,2.18,0,0,1,.82.58,7.18,7.18,0,0,1,.7.83,3.57,3.57,0,0,0,.24.35c.15.23.35.5.58.83s.47.65.72,1,.45.59.63.8a5.86,5.86,0,0,0,.74.75,2.65,2.65,0,0,0,.78.48,2.34,2.34,0,0,0,.93.18v.19h-1.29a4.77,4.77,0,0,1-1.58-.24,3.65,3.65,0,0,1-1.19-.63,4.6,4.6,0,0,1-.85-.86c-.05-.09-.15-.25-.31-.48l-.52-.81c-.19-.3-.38-.6-.56-.9l-.49-.77-.26-.42a4.3,4.3,0,0,0-.7-.86,1.32,1.32,0,0,0-.85-.38v-.19h.26a4,4,0,0,0,.59,0,4.46,4.46,0,0,0,1-.16,2.33,2.33,0,0,0,1-.58,2.61,2.61,0,0,0,.68-1.26,3.58,3.58,0,0,0,.08-.46,3.72,3.72,0,0,0,0-.58,3,3,0,0,0-.64-2,2.13,2.13,0,0,0-1.62-.75,6.56,6.56,0,0,0-.89,0h-1.17l-.05-.18-.14-.47Zm-2.35,11.63h.05a1.11,1.11,0,0,0,.36.83,1.13,1.13,0,0,0,.83.34h.22v.19h-1.46Z"/><path class="cls-1" d="M511.23,668h-.05a1.12,1.12,0,0,0-.35-.82,1.18,1.18,0,0,0-.84-.35h-.22l0-.18h1.48Zm0,10.28v1.36h-1.48l0-.19H510a1.17,1.17,0,0,0,.84-.34,1.14,1.14,0,0,0,.35-.83Zm1.67-11.63v13h-1.72v-13Zm1.1,0a6.21,6.21,0,0,1,2.27.37,3.17,3.17,0,0,1,1.47,1.07,2.75,2.75,0,0,1,.51,1.68,2.92,2.92,0,0,1-.31,1.4,2.54,2.54,0,0,1-.79.92,3,3,0,0,1-1,.48,3.93,3.93,0,0,1,1.7.61,3.27,3.27,0,0,1,1.12,1.22,3.65,3.65,0,0,1,.39,1.71,3.17,3.17,0,0,1-.55,1.87,3.41,3.41,0,0,1-1.58,1.23,6.61,6.61,0,0,1-2.49.43h-2c0-.25,0-.49,0-.73h1.65a3.48,3.48,0,0,0,1.58-.33,2.27,2.27,0,0,0,1-1,3.43,3.43,0,0,0,.36-1.64,3.11,3.11,0,0,0-.36-1.58,2.56,2.56,0,0,0-.9-1,3.81,3.81,0,0,0-1.24-.48,6.76,6.76,0,0,0-1.33-.14v-.17a3.7,3.7,0,0,0,.91-.11,2.66,2.66,0,0,0,.92-.39,2,2,0,0,0,.71-.8,3,3,0,0,0,.27-1.37,3.15,3.15,0,0,0-.3-1.45,1.92,1.92,0,0,0-.88-.88,3.21,3.21,0,0,0-1.42-.28h-1.93a1.37,1.37,0,0,0-.05-.18c0-.11-.07-.27-.14-.49Z"/><path class="cls-1" d="M531.4,668h0a1.09,1.09,0,0,0-.36-.82,1.14,1.14,0,0,0-.83-.35h-.22l0-.18h1.48Zm0,10.28v1.36h-1.48v-.19h.24a1.13,1.13,0,0,0,.83-.34,1.24,1.24,0,0,0,.36-.83Zm1.67-11.63v13h-1.72v-13Zm5,0v.65H533v-.65Zm-.83,6.27v.63H533v-.63Zm.76,6.07.14.65H533V679Zm1.2-2.62-1,3.27H535l.67-.65a3.57,3.57,0,0,0,1.62-.33,2.79,2.79,0,0,0,1.07-.92,5.73,5.73,0,0,0,.73-1.37Zm-1.13-10.06v.54l-2.26-.2a6.55,6.55,0,0,0,.86-.06l.84-.13A2.79,2.79,0,0,0,538.12,666.27Zm-.83,5.24v1.41H536v0a1.1,1.1,0,0,0,.79-.35,1.14,1.14,0,0,0,.32-.8v-.22Zm0,2v1.41h-.19v-.24a1.14,1.14,0,0,0-.32-.8,1,1,0,0,0-.79-.33v0Zm.83-6.27v1.71h-.19v-.3a1.3,1.3,0,0,0-.38-1,1.33,1.33,0,0,0-1-.41v0Z"/><path class="cls-1" d="M553.69,666.35l.72,0c.27,0,.55.06.83.11s.52.08.74.13a1.92,1.92,0,0,1,.47.14l-.07,2.2h-.17a1.79,1.79,0,0,0-.65-1.44,2.46,2.46,0,0,0-1.63-.54,2.35,2.35,0,0,0-1.68.6,1.88,1.88,0,0,0-.64,1.42,1.78,1.78,0,0,0,.21.86,2.58,2.58,0,0,0,.72.85l3.61,3a2.79,2.79,0,0,1,.92,1.16,3.24,3.24,0,0,1,.25,1.37,3.51,3.51,0,0,1-1.09,2.61,4,4,0,0,1-2.86,1,6.9,6.9,0,0,1-1.23-.12,5.53,5.53,0,0,1-1.24-.34,2.45,2.45,0,0,1-.92-.6,2.84,2.84,0,0,1-.09-.83,7.24,7.24,0,0,1,.11-1,5.67,5.67,0,0,1,.27-.93h.17a3.12,3.12,0,0,0,.27,1.69,2.5,2.5,0,0,0,1.06,1.14,2.9,2.9,0,0,0,1.6.37,2.83,2.83,0,0,0,1.81-.68,2.14,2.14,0,0,0,.71-1.68,2,2,0,0,0-.24-1,2.23,2.23,0,0,0-.74-.8l-3.45-2.93a3,3,0,0,1-1-1.23,3.07,3.07,0,0,1-.26-1.41,3.46,3.46,0,0,1,.44-1.57,3.08,3.08,0,0,1,1.18-1.17A3.77,3.77,0,0,1,553.69,666.35Zm2.76.18v.39h-1.67v-.39Z"/><path class="cls-1" d="M567.55,666.26a5,5,0,0,0,.56.14c.26.05.54.1.85.13a6.65,6.65,0,0,0,.85.06l-2.26.2Zm11.11.33v.63H567.55v-.63Zm-9.57.57v.06a1.41,1.41,0,0,0-1,.4,1.33,1.33,0,0,0-.38,1v.28l-.18,0v-1.73Zm3.21,11.08v1.36h-1.49v-.19h.24a1.12,1.12,0,0,0,.83-.34,1.19,1.19,0,0,0,.36-.83ZM574,666.66V679.6h-1.73V666.66Zm-.06,11.58H574a1.19,1.19,0,0,0,.36.83,1.11,1.11,0,0,0,.82.34h.25v.19h-1.49Zm4.75-12v.53l-2.26-.2a6.55,6.55,0,0,0,.86-.06c.3,0,.58-.08.85-.13A4.18,4.18,0,0,0,578.66,666.26Zm0,.9v1.73l-.18,0v-.28a1.33,1.33,0,0,0-.38-1,1.41,1.41,0,0,0-1-.4v-.06Z"/><path class="cls-1" d="M603.91,668h0a1.17,1.17,0,0,0-.36-.82,1.14,1.14,0,0,0-.83-.35h-.24v-.18h1.48Zm0,10.28v1.36h-1.48v-.19h.24a1.13,1.13,0,0,0,.83-.34,1.19,1.19,0,0,0,.36-.83Zm1.67-11.63v13h-1.72v-13Zm-.05,1.35v-1.35H607v.18h-.24a1.1,1.1,0,0,0-.82.35,1.22,1.22,0,0,0-.37.82Zm5,11,.14.65h-5.17V679Zm1.2-2.62-1,3.27H607.5l.66-.65a3.57,3.57,0,0,0,1.62-.33,2.79,2.79,0,0,0,1.07-.92,5.73,5.73,0,0,0,.73-1.37Z"/><path class="cls-1" d="M623.36,668h-.06a1.17,1.17,0,0,0-.36-.82,1.12,1.12,0,0,0-.82-.35h-.25v-.18h1.49Zm0,10.28v1.36h-1.49v-.19h.25a1.11,1.11,0,0,0,.82-.34,1.19,1.19,0,0,0,.36-.83ZM625,666.61v13H623.3v-13ZM625,668v-1.35h1.49v.18h-.24a1.14,1.14,0,0,0-.83.35,1.17,1.17,0,0,0-.36.82Zm0,10.28H625a1.19,1.19,0,0,0,.36.83,1.13,1.13,0,0,0,.83.34h.24v.19H625Z"/><path class="cls-1" d="M638.83,668h-.05a1.12,1.12,0,0,0-.35-.82,1.18,1.18,0,0,0-.84-.35h-.22l0-.18h1.48Zm0,10.28v1.36h-1.48v-.19h.24a1.13,1.13,0,0,0,.83-.34,1.19,1.19,0,0,0,.36-.83Zm1.67-11.63v13h-1.72v-13Zm5,0v.65h-5.1v-.65Zm-.83,6.27v.63h-4.27v-.63Zm-4.27,5.36h0a1.25,1.25,0,0,0,.37.83,1.09,1.09,0,0,0,.82.34h.24v.19h-1.48Zm5.1-12v.54l-2.26-.2a6.55,6.55,0,0,0,.86-.06l.84-.13A2.79,2.79,0,0,0,645.55,666.27Zm-.83,5.24v1.41h-1.3v0a1.1,1.1,0,0,0,.79-.35,1.14,1.14,0,0,0,.32-.8v-.22Zm0,2v1.41h-.19v-.24a1.14,1.14,0,0,0-.32-.8,1,1,0,0,0-.79-.33v0Zm.83-6.27v1.52h-.18v-.26a1.18,1.18,0,0,0-.35-.86,1.15,1.15,0,0,0-.86-.34v-.06Z"/><path class="cls-1" d="M658.11,668h-.05a1.09,1.09,0,0,0-.36-.82,1.14,1.14,0,0,0-.83-.35h-.22l0-.18h1.48Zm0,10.28v1.36h-1.48v-.19h.24a1.09,1.09,0,0,0,.82-.34,1.25,1.25,0,0,0,.37-.83Zm1.67-11.63v13h-1.72v-13Zm5.05,0v.65h-5.1v-.65Zm-.84,6.27v.63h-4.26v-.63Zm.76,6.07.15.65h-5.17V679Zm1.21-2.62-1,3.27h-3.27l.67-.65a3.6,3.6,0,0,0,1.62-.33,2.79,2.79,0,0,0,1.07-.92,5.38,5.38,0,0,0,.72-1.37Zm-1.13-10.06v.54l-2.26-.2a6.55,6.55,0,0,0,.86-.06l.84-.13A2.79,2.79,0,0,0,664.83,666.27Zm-.84,5.24v1.41h-1.3v0a1.1,1.1,0,0,0,.8-.35,1.14,1.14,0,0,0,.32-.8v-.22Zm0,2v1.41h-.18v-.24a1.14,1.14,0,0,0-.32-.8,1,1,0,0,0-.8-.33v0Zm.84-6.27v1.71h-.19v-.3a1.3,1.3,0,0,0-.38-1,1.35,1.35,0,0,0-1-.41v0Z"/><path class="cls-1" d="M691.4,678.28v1.32h-1.54v-.19h.35a1.09,1.09,0,0,0,.8-.33,1.11,1.11,0,0,0,.33-.8Zm-.06-11.95,1.43,1.63,0,11.64h-1.45v-11a17.64,17.64,0,0,0-.18-2.32Zm0,0,11.14,11.43.18,2.1-11.13-11.42Zm1.45,11.95a1.13,1.13,0,0,0,1.13,1.13h.35v.19h-1.54v-1.32Zm6.92-11.67h1.54v1.31h0a1.11,1.11,0,0,0-.34-.8,1.09,1.09,0,0,0-.81-.33h-.35Zm2.93,0v10.87c0,.42,0,.81.05,1.18s.08.76.14,1.2h-.17l-1.45-1.66V666.61Zm1.49,0v.18h-.34a1.07,1.07,0,0,0-.79.33,1.13,1.13,0,0,0-.36.8h0v-1.31Z"/><path class="cls-1" d="M721.46,666.35a7.65,7.65,0,0,1,3.63.83,6.08,6.08,0,0,1,2.41,2.36,7.8,7.8,0,0,1,0,7.12,6,6,0,0,1-2.41,2.36,7.54,7.54,0,0,1-3.63.84,7.41,7.41,0,0,1-3.59-.84,5.89,5.89,0,0,1-2.41-2.36,7.72,7.72,0,0,1,0-7.12,6,6,0,0,1,2.41-2.36A7.52,7.52,0,0,1,721.46,666.35Zm0,12.88a4.43,4.43,0,0,0,2.6-.77,4.92,4.92,0,0,0,1.7-2.13,8.72,8.72,0,0,0,0-6.46,5,5,0,0,0-1.7-2.13,4.43,4.43,0,0,0-2.6-.76,4.38,4.38,0,0,0-2.57.76,5,5,0,0,0-1.72,2.13,8.86,8.86,0,0,0,0,6.46,4.89,4.89,0,0,0,1.72,2.13A4.38,4.38,0,0,0,721.46,679.23Z"/><path class="cls-1" d="M741.11,667.94h-2a1.58,1.58,0,0,0-.71-.88,2,2,0,0,0-.92-.27h-.15v-.18H742v.18h-.17a.82.82,0,0,0-.62.3A.8.8,0,0,0,741.11,667.94Zm-2.43-1.22h2L744,676.91l-.57,3Zm8.64-.41.21,1.61L744,677.8c-.13.43-.23.8-.29,1.11a4.94,4.94,0,0,0-.11,1h-.17L743,678l4.16-11.71Zm0,0,4,10.3-.58,3.23-4.23-11Zm7.41.39-3.47,11.08a11.59,11.59,0,0,0-.28,1.14,4.86,4.86,0,0,0-.09.92h-.19l-.32-1.84,3.23-11.3Zm-1.47,1.22a.92.92,0,0,0-.09-.85.76.76,0,0,0-.61-.3h-.17v-.18h3.73v.18H756a2,2,0,0,0-.93.27,1.49,1.49,0,0,0-.7.88Z"/><path class="cls-1" d="M767.12,679.71a1,1,0,1,1,0-2,1,1,0,0,1,.72.29,1.05,1.05,0,0,1,0,1.43A1,1,0,0,1,767.12,679.71Zm.21-3.49h-.41l-.47-4-.26-5.7h1.88l-.26,5.7Z"/><path class="cls-1" d="M780.54,679.71a1,1,0,1,1,.71-.29A1,1,0,0,1,780.54,679.71Zm.2-3.49h-.41l-.46-4-.26-5.7h1.87l-.26,5.7Z"/><path class="cls-1" d="M362.25,402.82s0,26.86,9.24,34.94c-5.77,2-5.85,3.18-8.09,4.84-1.14.85-5.23,4.47-5.23,4.47s-2-36.16,3.21-46.84C362.24,399.44,362.25,402.82,362.25,402.82Z"/><path class="cls-1" d="M386.05,436.4c5.8-3.17,9.77-11.47,8.86-18.58s-6.31-10.19-12.07-7-9.74,11.37-8.87,18.48S380.25,439.56,386.05,436.4Z"/><path class="cls-2" d="M431.67,634c0,1.07-26.44,1.94-59.05,1.94S313.56,635,313.56,634,340,632,372.62,632,431.67,632.88,431.67,634Z"/><path class="cls-1" d="M399.47,487.32c-.08-.17-.16-.34-.25-.5l-.19-.34-.06-.11-.28-.45-.45-.69c-.15-.22-.29-.4-.44-.61a15.55,15.55,0,0,0-2.06-2.27,14.29,14.29,0,0,0-4.67-2.85,6,6,0,0,1,.51,1.19c.82,2.69.1,6.27-2.13,10.68l.18.34.06.11c-.11-.19,0-.06-.07-.11l0,0a1.4,1.4,0,0,1-.09-.17c0-.05,0-.09,0-.08s-.06.15-.16.39a7.2,7.2,0,0,1-.49.93,16.65,16.65,0,0,1-1.79,2.39l.47-.32-.87.75a45.45,45.45,0,0,1-4,3.8l.45-.36-.88.73-.31.25q-1.87,1.56-3.86,3l.49-.29-1,.63c-.51.38-1,.75-1.55,1.12-1.39,1-2.8,1.95-4.21,2.89l.51-.27-1,.58q-2.68,1.75-5.37,3.4l.52-.25-1,.55-1.8,1.09q-2.24,1.34-4.45,2.6l.5-.28-1,.56-1.24.71q-2.17,1.23-4.32,2.4l-1,.56.5-.29-1.28.69q-3,1.64-6,3.16l-.56.28-1,.55.51-.29q-2.4,1.25-4.74,2.41l-2.16,1.08-1,.55.48-.3q-3.15,1.56-6.16,3l-1,.52.5-.28q-3.53,1.68-6.83,3.2l-1,.55.49-.31c-1.47.68-2.91,1.33-4.3,2-4.72,2.12-9,4-12.81,5.57l-1,.51.5-.29-3.16,1.31c-2.14.89-4.08,1.67-5.78,2.35l-1.05.46.52-.25-4.41,1.71c-1.24.48-2.19.83-2.83,1.07l-1,.34,11.2,23.07,13.7-8.47c4.33-2.69,9.58-6,15.58-9.74s12.74-8.07,20-12.87q2.74-1.8,5.58-3.7c1.89-1.27,3.81-2.56,5.76-3.9s3.92-2.71,5.92-4.12,4-2.86,6.06-4.35c4.07-3,8.21-6.17,12.35-9.66,2.07-1.75,4.13-3.58,6.17-5.56q1.53-1.48,3-3.12c1-1.09,2-2.25,2.95-3.52a28.52,28.52,0,0,0,2.73-4.33,16.5,16.5,0,0,0,1.12-2.8,12.63,12.63,0,0,0,.55-3.62,10.46,10.46,0,0,0-.22-2.12A10,10,0,0,0,399.47,487.32Z"/><path class="cls-1" d="M461.1,423.31a24.59,24.59,0,0,0-.54-3.45c-.22-1-.48-1.83-.71-2.55s-.45-1.28-.63-1.74-.33-.8-.43-1l-.15-.35-15.89,8.62.1.13c.07.09.17.21.29.38a11.41,11.41,0,0,1,.88,1.42,6.86,6.86,0,0,1,.43.95,6.56,6.56,0,0,1,.29,1.06,4.88,4.88,0,0,1,0,1.29,6.39,6.39,0,0,1-.45,1.74A11.87,11.87,0,0,1,443.1,432a20.54,20.54,0,0,1-2.12,2.55,42.08,42.08,0,0,1-6.62,5.41c-1.33.9-2.76,1.79-4.27,2.68s-3.11,1.76-4.79,2.63c-3.35,1.74-7,3.43-10.88,5.09-7.77,3.33-16.47,6.51-25.77,9.73l-7.09,2.42L374.27,465q-3.69,1.25-7.46,2.55c-2.52.86-5.06,1.76-7.61,2.68s-5.14,1.88-7.72,2.9-5.19,2.09-7.79,3.26-5.21,2.44-7.78,3.92c-1.28.74-2.57,1.52-3.83,2.4a33.18,33.18,0,0,0-3.71,2.94,24.73,24.73,0,0,0-1.75,1.79,18.24,18.24,0,0,0-1.6,2.11,14.18,14.18,0,0,0-1.31,2.51,12.16,12.16,0,0,0-.78,2.9,11.84,11.84,0,0,0,0,3.07l.05.37c0,.13.05.28.07.42.07.37.06.32.14.68s.2.82.32,1.23a17.36,17.36,0,0,0,.92,2.51,13.69,13.69,0,0,0,1.47,2.53,11.42,11.42,0,0,0,2.26,2.3,10.47,10.47,0,0,0,3,1.55l.44.14c-2-2.16-2.89-5.18-2.51-8.91a23.19,23.19,0,0,1,1.32-5.55,7,7,0,0,1,.82-1.83,13,13,0,0,1,2.15-2.54,26.24,26.24,0,0,1,2.89-2.33c1-.73,2.15-1.43,3.29-2.08,2.28-1.31,4.69-2.49,7.14-3.59s4.95-2.09,7.46-3.05,5-1.84,7.55-2.7,5-1.66,7.54-2.45,5-1.54,7.47-2.29,4.93-1.45,7.36-2.16l7.21-2.09c9.5-2.73,18.53-5.35,26.87-8.1,4.17-1.37,8.17-2.79,12-4.28s7.4-3.08,10.78-4.81a61,61,0,0,0,9.38-5.85,37.15,37.15,0,0,0,4-3.6,27.32,27.32,0,0,0,3.35-4.23,22.6,22.6,0,0,0,2.36-4.78,21.48,21.48,0,0,0,1.12-4.89A22.53,22.53,0,0,0,461.1,423.31Z"/><path class="cls-1" d="M353.88,465.43a44.51,44.51,0,0,0-2.65,5.77c6.87-2.84,19.07-6.9,24-8.52,20.49-32.23,77.34-53.08,77.34-53.08C450.41,406,428,416.92,420,420.19s-19.54,5.2-36.48,16.36c-7.22.1-10.3,1.16-21.56,9.24C348.39,451.86,356.19,460.23,353.88,465.43Z"/><path class="cls-1" d="M370.21,476.12l-22.1,7.71c-1.5,10.57-.81,22.31,1,33.88l23.68-13.17C375.67,494.72,369.75,486.76,370.21,476.12Z"/><path class="cls-1" d="M370.67,526.28c-6.25,4.67-13.89,10.36-17.1,12.71,4.13,16,9.23,29.89,11.86,37.31,6.64,18.76,4.62,52.83,7.22,52.26s5.48-22.52,2.88-33.5C373.59,586.87,371.57,546.3,370.67,526.28Z"/><path class="cls-1" d="M378.74,520.25l-7.12,5.32c.32,3.34.58,7.4.68,12.08,2.75,6.8,14.91,16.35,20.12,16.06s39.36-38.78,52.39-46c-14.62.29-51.23,27.93-55,28.94C387.8,537.18,382.87,528.46,378.74,520.25Z"/><path class="cls-1" d="M343,500a37.45,37.45,0,0,1-3.56,1.56,17.9,17.9,0,0,1-3.36.92,8.12,8.12,0,0,1-1.44.09,5,5,0,0,1-1.12-.17,3.26,3.26,0,0,1-.84-.4,3.75,3.75,0,0,1-.76-.74,8.44,8.44,0,0,1-1.29-2.64.29.29,0,0,0,0-.09,20,20,0,0,0-.42,2.48c-.41,4.2.81,7.29,3.63,9.2l.39,0a15.85,15.85,0,0,0,2.86-.08,25.46,25.46,0,0,0,5-1.17c1.49-.5,2.88-1.08,4.24-1.69-.14-2.14-.42-6.42-.51-8.76C344.79,499,343.87,499.52,343,500Z"/><path class="cls-1" d="M390.5,481.08a3.89,3.89,0,0,0-1.41-2.15,17.15,17.15,0,0,0-2.07-.29,19.9,19.9,0,0,0-5.55.41,32.85,32.85,0,0,0-4.77,1.42c-1.49.57-2.9,1.21-4.28,1.88l-.55.27,2.45,9.23c.69-.33,1.37-.64,2.05-.93,1.19-.51,2.38-1,3.54-1.33a21.85,21.85,0,0,1,3.35-.8,10.14,10.14,0,0,1,2.78-.06,4,4,0,0,1,2.69,1.53C391,485.55,391,482.69,390.5,481.08Z"/><path class="cls-1" d="M579.94,632a23.76,23.76,0,0,1-7.94,2.29,7.85,7.85,0,0,1-4.71-.82,8.63,8.63,0,0,0,.24-3.18c-.3-4-5.53-2.29-3.77,2a5.56,5.56,0,0,0,1.24,2c-2.3,5.12-10.36,14.3-13,13.36-1.47-.53-1.17-3.65,2.12-10.89.65-1.23.77-3.35-1.29-3.53-5.36-.58-14.07,20.42-16.89,20.25-.41,0-.59-.48-.59-1.36.24-5.23,7.89-21.3,9.3-26,.82-2.58-2.71-4.06-5.24-1.17-1.17,1.3-2.48,4-3.68,7.24-2.06,2.36-16.76,14.44-23.8,11.47-4.7-1.88-3.06-8.12-1.53-11.65,5.36.17,10.65-2.53,10.18-5.59-.17-1.35-1.23-2.53-3.35-3-4.47-.94-8.71,3.06-10.89,6.18a21.61,21.61,0,0,0-1.59,2.63c-4.26,5.08-15.08,15.29-20.59,13.9-7.18-1.65.94-12.47-1.59-16.18-1.17-1.65-2.82-1.41-4.65-.06-5.59,4.18-12.76,18.24-13.47,19.18s-.71-.35-.71-.7c.3-5.3,6.24-17.19,7.65-21.95.83-2.59-2.7-4.12-5.23-1.18-3.36,4-6.53,16-5.89,22.07.18,2.12.83,5.47,3.36,5.47,1,0,1.88-.77,2.76-1.88,1.65-3.12,10.53-17.6,10.95-16.77.17.17,0,.7-.18,1.17-1.88,5.71-.59,12.6,5.88,13.24,6.82.74,14.4-5.2,19.87-10.77-.52,3.88.87,7.4,5.85,8.6,8.14,1.75,18.9-3.93,25.43-9.54-1.6,5.41-2.67,11.17-2.31,14.24.18,2.18,1,4.48,3.59,4.48,4.29,0,10.47-12.54,13.47-16-1.59,3.71-2.41,10.41,3,10.71,5.76-.3,13-10.18,14.88-14.71a10.15,10.15,0,0,0,5,1.06,22,22,0,0,0,9.18-2.47A1.17,1.17,0,1,0,579.94,632Zm-64.25-6.3c.65,1.47-1.88,4.53-4.24,4.24C514,625.26,515.28,624.85,515.69,625.73Z"/><path class="cls-1" d="M683.26,632c-1.35,1.82-16.71,14.71-24,11.65-4.7-1.88-3-8.12-1.52-11.65,5.35.17,10.64-2.53,10.17-5.59-.17-1.35-1.23-2.53-3.35-3-4.47-.94-8.71,3.06-10.88,6.18a22.67,22.67,0,0,0-1.61,2.64c-4,4.89-12.72,14.12-18.28,13.65-2.77-.64-2.59-4.47.18-10.82.7-1.65-.83-2.59-2.89-1.71-2.23.94-6,4.83-8.76,7.12,2-6.12,3.64-15.3-1.06-15.3-8.18,0-14.66,19.83-18,23.89-.76.94-.71-.35-.71-.7.3-5.3,6.24-17.19,7.65-21.95.83-2.59-2.7-4.12-5.23-1.18-3.36,4-6.53,16-5.89,22.07.18,2.12.83,5.47,3.36,5.47s4.88-5.53,6.65-9.36c.47-.7,7.94-16.3,11.18-15.18,2.06,1.59-2.12,11.54-6.71,18.48-1.36,2.12.17,3.47,2.94,2.35,2.18-1.35,3-2.7,4.59-4.12,3.12-3,7.35-6,7.06-5.41-2,4.41-.88,8.41,4.41,8.71,6.47.36,12.8-4.95,17.66-10.2-.42,3.77,1,7.14,5.88,8.32,9.82,2.11,23.48-6.59,28.89-12.95C687.5,630.79,685,629.79,683.26,632Zm-20.18-6.3c.65,1.47-1.88,4.53-4.24,4.24C661.37,625.26,662.67,624.85,663.08,625.73Z"/></svg>