<svg width="75" height="75" viewBox="0 0 75 75" fill="none" xmlns="http://www.w3.org/2000/svg">
<path d="M35.8246 29.8173C36.251 28.0609 38.749 28.0609 39.1754 29.8173C39.4508 30.9519 40.7507 31.4904 41.7478 30.8828C43.2913 29.9424 45.0576 31.7087 44.1172 33.2522C43.5096 34.2493 44.0481 35.5492 45.1827 35.8246C46.9391 36.251 46.9391 38.749 45.1827 39.1754C44.0481 39.4508 43.5096 40.7507 44.1172 41.7478C45.0576 43.2913 43.2913 45.0576 41.7478 44.1172C40.7507 43.5096 39.4508 44.0481 39.1754 45.1827C38.749 46.9391 36.251 46.9391 35.8246 45.1827C35.5492 44.0481 34.2493 43.5096 33.2522 44.1172C31.7087 45.0576 29.9424 43.2913 30.8829 41.7478C31.4904 40.7507 30.9519 39.4508 29.8173 39.1754C28.0609 38.749 28.0609 36.251 29.8173 35.8246C30.9519 35.5492 31.4904 34.2493 30.8828 33.2522C29.9424 31.7087 31.7087 29.9424 33.2522 30.8828C34.2493 31.4904 35.5492 30.9519 35.8246 29.8173Z" stroke="#91D2B2" stroke-linecap="round" stroke-linejoin="round"/>
<path d="M40.5 37.5C40.5 39.1569 39.1569 40.5 37.5 40.5C35.8431 40.5 34.5 39.1569 34.5 37.5C34.5 35.8431 35.8431 34.5 37.5 34.5C39.1569 34.5 40.5 35.8431 40.5 37.5Z" stroke="#91D2B2" stroke-linecap="round" stroke-linejoin="round"/>
</svg>
